<svg width="404" height="346" viewBox="0 0 404 346" fill="none" xmlns="http://www.w3.org/2000/svg"><path d="M208.941 222.5L327.941 153.899V151.5L208.941 220.101V222.5Z" fill="#00FFFF"></path><path fill-rule="evenodd" clip-rule="evenodd" d="M133.235 116.818L123.8 122.335L134.723 122.695L134.243 120.8C147.285 118.692 173.89 114.5 202.442 114.5C232.336 114.5 259.998 119.672 272.815 122.855L272.337 124.407L283.265 124.6L274.122 118.613L273.405 120.941C260.502 117.727 232.608 112.5 202.442 112.5C173.591 112.5 146.738 116.753 133.75 118.854L133.235 116.818ZM287.019 336.538L296.369 330.88L285.442 330.685L285.945 332.55C267.55 337.325 234.807 342.81 205.03 343.26C174.206 343.726 141.033 338.321 128.427 335.337L128.849 333.891L117.92 333.862L127.153 339.711L127.867 337.26C140.55 340.274 173.975 345.73 205.061 345.26C235.008 344.807 267.917 339.297 286.465 334.482L287.019 336.538ZM23.8489 174.387L19.6863 184.492L17.9738 183.131C9.83715 193.415 2.00033 208.029 2 229.399C1.99974 246.291 7.85454 259.386 13.6986 267.749L15.2249 266.523L17.9754 273.106C18.0413 273.178 18.107 273.248 18.1725 273.319L18.0946 273.391L19.4382 276.607L10.499 270.32L12.1363 269.004C6.06156 260.352 -0.000265444 246.828 8.71798e-09 229.399C0.00033441 207.451 8.07711 192.416 16.4086 181.886L14.9413 180.719L23.8489 174.387ZM386.477 264.501L382.314 274.606L385.471 272.362L385.768 272.564C385.952 272.293 386.135 272.026 386.316 271.761L391.221 268.274L389.605 266.989C392.146 263.256 394.319 259.781 395.984 255.558C398.448 249.31 399.791 241.472 399.791 228.708C399.791 211.28 393.729 197.755 387.655 189.103L389.292 187.788L380.353 181.501L381.696 184.716L381.619 184.789C381.684 184.859 381.75 184.93 381.816 185.002L384.566 191.585L386.092 190.358C391.936 198.721 397.791 211.816 397.791 228.708C397.791 241.343 396.459 248.901 394.123 254.825C392.545 258.827 390.505 262.104 388.034 265.74L386.477 264.501Z" fill="#00FFFF"></path><path d="M398.482 152.007C398.482 150.697 397.573 149.33 395.809 148.305L338.425 115.151C334.899 113.101 329.212 113.101 325.743 115.151L274.558 144.944C272.794 145.969 271.941 147.279 271.941 148.646C271.941 149.957 271.941 147.507 271.941 148.874C271.941 150.241 272.794 151.552 274.614 152.577L331.999 185.73C335.525 187.781 341.212 187.781 344.681 185.73L395.866 155.938C397.573 154.912 398.426 153.659 398.482 152.349C398.482 150.925 398.482 153.317 398.482 152.007Z" fill="url(#paint_illustration_0_linear)"></path><path d="M273.762 146.767L333.705 181.402C334.899 182.085 336.606 182.484 338.425 182.484C340.245 182.484 341.952 182.085 343.146 181.402L396.606 150.299C396.947 150.071 396.947 149.445 396.549 149.217L336.606 114.582C335.411 113.899 333.705 113.5 331.885 113.5C330.065 113.5 328.359 113.899 327.165 114.582L273.705 145.685C273.42 145.856 273.42 146.539 273.762 146.767Z" fill="url(#paint_illustration_1_linear)"></path><path fill-rule="evenodd" clip-rule="evenodd" d="M334.607 134.179V132.965H334.049C327.411 133.086 321.27 134.604 316.556 137.215C306.569 142.862 306.631 152.031 316.68 157.739C326.729 163.447 342.981 163.447 352.968 157.8C362.52 152.396 362.831 143.713 354.022 138.005C353.65 137.762 353.588 137.337 354.022 137.094C354.456 136.851 355.139 136.912 355.511 137.094C360.101 139.948 362.582 143.652 362.582 147.538C362.582 151.728 359.729 155.675 354.519 158.65C349.308 161.625 342.361 163.265 334.855 163.265C327.473 163.265 320.402 161.625 315.129 158.65C309.857 155.675 306.941 151.728 306.941 147.477C306.941 143.288 309.795 139.341 315.005 136.365C320.092 133.511 326.791 131.872 334.049 131.811H334.607V130.597C334.607 130.475 334.793 130.475 334.917 130.536L337.584 132.054C337.956 132.297 337.894 132.601 337.584 132.783L334.917 134.301C334.793 134.301 334.607 134.301 334.607 134.179ZM348.377 134.303C348.998 133.939 350.114 133.939 350.735 134.303C351.355 134.667 351.355 135.275 350.735 135.639C350.114 136.003 348.998 136.003 348.377 135.639C347.757 135.275 347.757 134.667 348.377 134.303ZM344.533 132.541C343.913 132.176 342.796 132.176 342.176 132.541C341.556 132.905 341.618 133.452 342.176 133.877C342.796 134.241 343.913 134.241 344.533 133.877C345.153 133.512 345.153 132.905 344.533 132.541ZM329.953 150.451C327.286 148.933 327.224 146.505 329.953 144.986C332.683 143.468 336.901 143.468 339.568 144.986C342.235 146.505 342.297 148.933 339.568 150.451C336.839 151.969 332.683 151.969 329.953 150.451ZM338.39 145.715C336.405 144.561 333.117 144.561 331.132 145.715C329.085 146.869 329.085 148.691 331.132 149.844C333.179 150.998 336.405 150.998 338.39 149.844C340.437 148.691 340.437 146.869 338.39 145.715ZM339.26 153.553L341.679 154.342C342.051 154.464 342.424 154.403 342.734 154.282L346.331 152.217C346.642 152.035 346.704 151.792 346.456 151.61L344.967 150.274C344.967 150.244 344.998 150.213 345.029 150.183C345.06 150.153 345.091 150.122 345.091 150.092L347.82 149.667C348.192 149.545 348.44 149.424 348.44 149.181L348.378 146.266C348.378 146.024 348.13 145.781 347.758 145.781L345.029 145.416C345.029 145.386 344.998 145.356 344.967 145.325C344.936 145.295 344.905 145.265 344.905 145.234L346.331 143.898C346.518 143.716 346.456 143.413 346.207 143.291L342.548 141.227C342.299 141.044 341.803 141.044 341.493 141.166L339.074 142.016C339.012 142.016 338.965 142.001 338.919 141.986C338.872 141.97 338.826 141.955 338.764 141.955L338.019 140.437C337.833 140.194 337.585 140.073 337.151 140.073H332.002C331.568 140.073 331.196 140.255 331.134 140.437L330.452 141.955C330.39 141.955 330.343 141.97 330.297 141.986C330.25 142.001 330.204 142.016 330.142 142.016L327.722 141.227C327.412 141.105 326.916 141.105 326.668 141.287L323.07 143.352C322.76 143.534 322.698 143.777 322.946 143.959L324.435 145.295C324.435 145.325 324.404 145.356 324.373 145.386C324.342 145.416 324.311 145.447 324.311 145.477L321.581 145.902C321.209 146.024 320.961 146.145 320.961 146.388L321.023 149.303C321.023 149.545 321.271 149.788 321.643 149.788L324.373 150.153C324.373 150.183 324.404 150.213 324.435 150.244C324.466 150.274 324.497 150.304 324.497 150.335L323.07 151.671C322.884 151.853 322.946 152.156 323.194 152.278L326.854 154.342C327.102 154.525 327.598 154.525 327.909 154.403L330.328 153.553C330.39 153.553 330.436 153.568 330.483 153.583C330.529 153.599 330.576 153.614 330.638 153.614L331.382 155.132C331.568 155.375 331.816 155.496 332.251 155.496H337.399C337.833 155.496 338.206 155.314 338.268 155.132L338.95 153.614C339.012 153.614 339.058 153.599 339.105 153.583C339.151 153.568 339.198 153.553 339.26 153.553ZM343.23 150.578L344.595 151.792L342.113 153.189L339.88 152.46C339.632 152.399 339.322 152.339 339.074 152.46C339.008 152.476 338.933 152.492 338.853 152.51C338.633 152.557 338.371 152.614 338.143 152.703C337.833 152.824 337.647 152.946 337.585 153.067L337.027 154.464H333.305L332.685 153.067C332.646 153.042 332.606 153.013 332.566 152.985C332.417 152.877 332.26 152.764 332.065 152.764C331.878 152.733 331.723 152.688 331.568 152.642C331.413 152.597 331.258 152.551 331.072 152.521C330.824 152.46 330.514 152.46 330.266 152.581L328.095 153.371L325.365 151.853L326.668 150.638C326.854 150.517 326.916 150.335 326.73 150.213C326.544 150.031 326.42 149.849 326.296 149.667L326.296 149.667C326.172 149.485 325.924 149.363 325.675 149.363L323.132 149.06L323.07 146.934L325.551 146.57C325.799 146.449 326.048 146.327 326.11 146.206C326.234 146.024 326.358 145.841 326.544 145.659C326.668 145.538 326.668 145.356 326.482 145.234L325.117 144.02L327.784 142.502L330.018 143.23C330.266 143.291 330.576 143.352 330.824 143.23C330.89 143.214 330.964 143.198 331.044 143.181C331.265 143.133 331.527 143.077 331.754 142.987C332.065 142.866 332.251 142.745 332.313 142.623L332.809 141.348H336.531L337.151 142.745C337.19 142.77 337.23 142.799 337.269 142.827C337.418 142.935 337.576 143.048 337.771 143.048C337.957 143.079 338.112 143.124 338.268 143.17C338.423 143.215 338.578 143.261 338.764 143.291C339.012 143.352 339.322 143.352 339.57 143.23L341.741 142.441L344.471 143.959L343.168 145.173C342.982 145.295 342.92 145.477 343.106 145.598C343.292 145.781 343.416 145.963 343.54 146.145C343.664 146.327 343.912 146.449 344.16 146.449L346.642 146.752V148.877L344.16 149.242C343.912 149.363 343.664 149.485 343.602 149.606C343.478 149.788 343.354 149.97 343.168 150.153C343.044 150.274 343.044 150.456 343.23 150.578Z" fill="url(#paint_illustration_2_linear)"></path><path d="M202.941 226.5L83.9414 157.899V155.5L202.941 224.101V226.5Z" fill="#00FFFF"></path><path opacity="0.4" d="M199.72 309.002L132.266 270.336C125.832 266.647 126.674 260.203 134.147 255.923L198.384 219.078C205.857 214.798 217.091 214.307 223.475 217.996L290.93 256.71C297.363 260.4 296.522 266.844 289.049 271.124L224.811 307.969C217.388 312.248 206.104 312.691 199.72 309.002Z" fill="url(#paint_illustration_3_linear)"></path><path opacity="0.5" d="M199.72 301.322L132.266 262.657C125.832 258.967 126.674 252.523 134.147 248.243L198.384 211.398C205.857 207.119 217.091 206.627 223.475 210.316L290.93 249.031C297.363 252.72 296.522 259.164 289.049 263.444L224.811 300.289C217.388 304.569 206.104 305.011 199.72 301.322Z" fill="url(#paint_illustration_4_linear)"></path><path opacity="0.6" d="M199.72 293.642L132.266 254.977C125.832 251.288 126.674 244.844 134.147 240.564L198.384 203.719C205.857 199.439 217.091 198.947 223.475 202.637L290.93 241.351C297.363 245.04 296.522 251.484 289.049 255.764L224.811 292.609C217.388 296.889 206.104 297.332 199.72 293.642Z" fill="url(#paint_illustration_5_linear)"></path><path opacity="0.7" d="M199.72 285.963L132.266 247.297C125.832 243.608 126.674 237.164 134.147 232.884L198.384 196.039C205.857 191.759 217.091 191.267 223.475 194.957L290.93 233.671C297.363 237.361 296.522 243.805 289.049 248.085L224.811 284.93C217.388 289.209 206.104 289.652 199.72 285.963Z" fill="url(#paint_illustration_6_linear)"></path><path opacity="0.8" d="M199.72 278.283L132.266 239.618C125.832 235.928 126.674 229.484 134.147 225.204L198.384 188.359C205.857 184.08 217.091 183.588 223.475 187.277L290.93 225.991C297.363 229.681 296.522 236.125 289.049 240.405L224.811 277.25C217.388 281.53 206.104 281.972 199.72 278.283Z" fill="url(#paint_illustration_7_linear)"></path><path d="M199.72 270.509L132.266 231.844C125.832 228.155 126.674 221.711 134.147 217.431L198.384 180.586C205.857 176.306 217.091 175.814 223.475 179.504L290.93 218.218C297.363 221.907 296.522 228.352 289.049 232.631L224.811 269.476C217.388 273.707 206.104 274.199 199.72 270.509Z" fill="url(#paint_illustration_8_linear)"></path><path fill-rule="evenodd" clip-rule="evenodd" d="M244.344 221.67L216.116 205.41C213.444 203.858 208.722 204.044 205.615 205.844L178.733 221.339C177.251 222.192 176.392 223.249 176.186 224.291H176.17V224.375C176.126 224.647 176.125 224.918 176.17 225.184V227.927H178.86L206.175 243.681C208.846 245.232 213.547 245.025 216.675 243.226L243.217 227.927H246.187V224.291H246.153C246.155 223.308 245.56 222.371 244.344 221.67Z" fill="url(#paint_illustration_9_linear)"></path><path d="M216.116 208.684L244.345 224.944C247.037 226.495 246.685 229.205 243.558 231.005L216.676 246.5C213.548 248.299 208.847 248.506 206.175 246.955L177.947 230.674C175.255 229.122 175.607 226.412 178.734 224.613L205.616 209.118C208.723 207.339 213.445 207.132 216.116 208.684Z" fill="url(#paint_illustration_10_linear)"></path><path fill-rule="evenodd" clip-rule="evenodd" d="M215.922 100.812L244.15 117.072C245.013 117.569 245.563 118.185 245.809 118.852H245.96V119.682C245.96 119.687 245.96 119.692 245.96 119.698V224.197C245.96 224.214 245.96 224.231 245.96 224.248V227.467C245.96 227.484 245.96 227.501 245.96 227.518V227.931H245.921C245.733 228.99 244.871 230.069 243.363 230.936L216.482 246.431C213.354 248.231 208.653 248.438 205.981 246.886L177.753 230.605C176.618 229.951 176.024 229.091 175.951 228.18C175.945 228.098 175.942 228.015 175.944 227.931H175.943V118.852H176.301C176.707 118.097 177.457 117.364 178.54 116.741L205.422 101.246C208.529 99.4467 213.251 99.2605 215.922 100.812Z" fill="url(#paint_illustration_11_linear)" fill-opacity="0.9" style="mix-blend-mode:screen"></path><path d="M137.482 151.007C137.482 149.697 136.573 148.33 134.809 147.305L77.4252 114.151C73.8991 112.101 68.2119 112.101 64.7427 114.151L13.5575 143.944C11.7945 144.969 10.9414 146.279 10.9414 147.646C10.9414 148.957 10.9414 146.507 10.9414 147.874C10.9414 149.241 11.7945 150.552 13.6144 151.577L70.9986 184.73C74.5247 186.781 80.212 186.781 83.6812 184.73L134.866 154.938C136.573 153.912 137.426 152.659 137.482 151.349C137.482 149.925 137.482 152.317 137.482 151.007Z" fill="url(#paint_illustration_12_linear)"></path><path d="M12.7616 145.767L72.7051 180.402C73.8994 181.085 75.6056 181.484 77.4255 181.484C79.2454 181.484 80.9516 181.085 82.1459 180.402L135.606 149.299C135.947 149.071 135.947 148.445 135.549 148.217L75.6056 113.582C74.4113 112.899 72.7051 112.5 70.8851 112.5C69.0652 112.5 67.3591 112.899 66.1647 113.582L12.7047 144.685C12.4203 144.856 12.4203 145.539 12.7616 145.767Z" fill="url(#paint_illustration_13_linear)"></path><path d="M96.5499 59.2968L96.9719 59.037L76.895 46.5L56.7578 59.037L57.2401 59.2968L56.7578 59.5567L57.2401 59.8815L56.7578 60.1413L57.2401 60.4011L56.7578 60.7259L57.2401 60.9858L56.7578 61.2456L57.2401 61.5054L56.7578 61.8302L57.2401 62.0901L56.7578 62.3499L57.2401 62.6747L56.7578 62.9345L57.2401 63.1943L56.7578 63.5191L57.2401 63.779L56.7578 64.0388L57.2401 64.3636L56.7578 64.6234L57.2401 64.8833L56.7578 65.2081L57.2401 65.4679L56.7578 65.7277L57.2401 66.0525L56.7578 66.3124L57.2401 66.5722L56.7578 66.897L57.2401 67.1568L56.7578 67.4167L57.2401 67.7414L56.7578 68.0013L57.2401 68.2611L56.7578 68.5859L57.2401 68.8457L56.7578 69.1056L57.2401 69.3654L56.7578 69.6902L57.2401 69.95L56.7578 70.2099L57.2401 70.5347L56.7578 70.7945L57.2401 71.0543L56.7578 71.3791L57.2401 71.639L56.7578 71.8988L57.2401 72.2236L56.7578 72.4834L57.2401 72.7433L56.7578 73.068L57.2401 73.3279L56.7578 73.5877L57.2401 73.9125L56.7578 74.1723L57.2401 74.4322L56.7578 74.757L57.2401 75.0168L56.7578 75.2766L57.2401 75.6014L56.7578 75.8613L57.2401 76.1211L56.7578 76.4459L57.2401 76.7057L56.7578 76.9656L57.2401 77.2904L56.7578 77.5502L57.2401 77.81L56.7578 78.0699L57.2401 78.3946L56.7578 78.6545L57.2401 78.9143L56.7578 79.2391L57.2401 79.4989L56.7578 79.7588L57.2401 80.0836L56.7578 80.3434L57.2401 80.6032L56.7578 80.928L57.2401 81.1879L56.7578 81.4477L57.2401 81.7725L56.7578 82.0323L57.2401 82.2922L56.7578 82.617L57.2401 82.8768L56.7578 83.1366L57.2401 83.4614L56.7578 83.7213L57.2401 83.9811L56.7578 84.3059L57.2401 84.5657L56.7578 84.8255L57.2401 85.1503L56.7578 85.4102L57.2401 85.67L56.7578 85.9298L57.2401 86.2546L56.7578 86.5145L57.2401 86.7743L56.7578 87.0991L57.2401 87.3589L56.7578 87.6188L57.2401 87.9436L56.7578 88.2034L57.2401 88.4632L56.7578 88.788L57.2401 89.0479L56.7578 89.3077L57.2401 89.6325L56.7578 89.8923L57.2401 90.1521L56.7578 90.4769L57.2401 90.7368L56.7578 90.9966L57.2401 91.3214L56.7578 91.5812L57.2401 91.8411L56.7578 92.1659L57.2401 92.4257L56.7578 92.6855L57.2401 93.0103L56.7578 93.2702L57.2401 93.53L56.7578 93.7898L57.2401 94.1146L56.7578 94.3745L57.2401 94.6343L56.7578 94.9591L57.2401 95.2189L56.7578 95.4787L57.2401 95.8035L56.7578 96.0634L57.2401 96.3232L56.7578 96.648L57.2401 96.9078L56.7578 97.1677L57.2401 97.4925L56.7578 97.7523L57.2401 98.0121L56.7578 98.3369L57.2401 98.5968L56.7578 98.8566L57.2401 99.1814L56.7578 99.4412L57.2401 99.7011L56.7578 100.026L57.2401 100.286L56.7578 100.546L57.2401 100.87L56.7578 101.13L57.2401 101.39L56.7578 101.65L57.2401 101.975L56.7578 102.234L57.2401 102.494L56.7578 102.819L57.2401 103.079L56.7578 103.339L57.2401 103.664L56.7578 103.923L57.2401 104.183L56.7578 104.508L76.895 116.98L96.9719 104.508L96.5499 104.183L96.9719 103.923L96.5499 103.664L96.9719 103.339L96.5499 103.079L96.9719 102.819L96.5499 102.494L96.9719 102.234L96.5499 101.975L96.9719 101.65L96.5499 101.39L96.9719 101.13L96.5499 100.87L96.9719 100.546L96.5499 100.286L96.9719 100.026L96.5499 99.7011L96.9719 99.4412L96.5499 99.1814L96.9719 98.8566L96.5499 98.5968L96.9719 98.3369L96.5499 98.0121L96.9719 97.7523L96.5499 97.4925L96.9719 97.1677L96.5499 96.9078L96.9719 96.648L96.5499 96.3232L96.9719 96.0634L96.5499 95.8035L96.9719 95.4787L96.5499 95.2189L96.9719 94.9591L96.5499 94.6343L96.9719 94.3745L96.5499 94.1146L96.9719 93.7898L96.5499 93.53L96.9719 93.2702L96.5499 93.0103L96.9719 92.6855L96.5499 92.4257L96.9719 92.1659L96.5499 91.8411L96.9719 91.5812L96.5499 91.3214L96.9719 90.9966L96.5499 90.7368L96.9719 90.4769L96.5499 90.1521L96.9719 89.8923L96.5499 89.6325L96.9719 89.3077L96.5499 89.0479L96.9719 88.788L96.5499 88.4632L96.9719 88.2034L96.5499 87.9436L96.9719 87.6188L96.5499 87.3589L96.9719 87.0991L96.5499 86.7743L96.9719 86.5145L96.5499 86.2546L96.9719 85.9298L96.5499 85.67L96.9719 85.4102L96.5499 85.1503L96.9719 84.8255L96.5499 84.5657L96.9719 84.3059L96.5499 83.9811L96.9719 83.7213L96.5499 83.4614L96.9719 83.1366L96.5499 82.8768L96.9719 82.617L96.5499 82.2922L96.9719 82.0323L96.5499 81.7725L96.9719 81.4477L96.5499 81.1879L96.9719 80.928L96.5499 80.6032L96.9719 80.3434L96.5499 80.0836L96.9719 79.7588L96.5499 79.4989L96.9719 79.2391L96.5499 78.9143L96.9719 78.6545L96.5499 78.3946L96.9719 78.0699L96.5499 77.81L96.9719 77.5502L96.5499 77.2254L96.9719 76.9656L96.5499 76.7057L96.9719 76.4459L96.5499 76.1211L96.9719 75.8613L96.5499 75.6014L96.9719 75.2766L96.5499 75.0168L96.9719 74.757L96.5499 74.4322L96.9719 74.1723L96.5499 73.9125L96.9719 73.5877L96.5499 73.3279L96.9719 73.068L96.5499 72.7433L96.9719 72.4834L96.5499 72.2236L96.9719 71.8988L96.5499 71.639L96.9719 71.3791L96.5499 71.0543L96.9719 70.7945L96.5499 70.5347L96.9719 70.2099L96.5499 69.95L96.9719 69.6902L96.5499 69.3654L96.9719 69.1056L96.5499 68.8457L96.9719 68.5859L96.5499 68.2611L96.9719 68.0013L96.5499 67.7414L96.9719 67.4167L96.5499 67.1568L96.9719 66.897L96.5499 66.5722L96.9719 66.3124L96.5499 66.0525L96.9719 65.7277L96.5499 65.4679L96.9719 65.2081L96.5499 64.8833L96.9719 64.6234L96.5499 64.3636L96.9719 64.0388L96.5499 63.779L96.9719 63.5191L96.5499 63.1943L96.9719 62.9345L96.5499 62.6747L96.9719 62.3499L96.5499 62.0901L96.9719 61.8302L96.5499 61.5054L96.9719 61.2456L96.5499 60.9858L96.9719 60.7259L96.5499 60.4011L96.9719 60.1413L96.5499 59.8815L96.9719 59.5567L96.5499 59.2968Z" fill="url(#paint_illustration_14_linear)" fill-opacity="0.3" style="mix-blend-mode:soft-light"></path><g opacity="0.4"><path opacity="0.4" d="M100.077 131.024C102.082 132.177 102.082 135.071 100.077 136.224L78.3589 148.72C77.4327 149.252 76.2929 149.252 75.3667 148.72L53.6487 136.224C51.6434 135.071 51.6434 132.177 53.6487 131.024L75.3667 118.529C76.2929 117.996 77.4327 117.996 78.3589 118.529L100.077 131.024Z" fill="url(#paint_illustration_15_linear)"></path><path opacity="0.4" d="M76.8628 167.393L52.7225 153.622C51.7867 153.088 51.209 152.094 51.209 151.016V133.906L75.3662 147.896C76.2925 148.432 76.8628 149.421 76.8628 150.492V167.393Z" fill="url(#paint_illustration_16_linear)"></path><path opacity="0.4" d="M76.8618 167.393L101.002 153.622C101.938 153.088 102.516 152.094 102.516 151.016V133.906L78.3584 147.896C77.4321 148.432 76.8618 149.421 76.8618 150.492V167.393Z" fill="url(#paint_illustration_17_linear)"></path></g><path d="M99.6601 131.164L76.8593 144.241L54.0586 131.164L76.8593 118.027L99.6601 131.164Z" fill="url(#paint_illustration_18_linear)"></path><path d="M99.6601 130.867L76.8593 144.004L54.0586 130.867V149.403L76.8593 162.54L99.6601 149.403V130.867Z" fill="url(#paint_illustration_19_linear)"></path><path d="M100.077 131.024C102.082 132.177 102.082 135.071 100.077 136.224L78.3589 148.72C77.4327 149.252 76.2929 149.252 75.3667 148.72L53.6487 136.224C51.6434 135.071 51.6434 132.177 53.6487 131.024L75.3667 118.529C76.2929 117.996 77.4327 117.996 78.3589 118.529L100.077 131.024Z" fill="url(#paint_illustration_20_linear)"></path><path d="M94.4903 133.623L76.8633 143.761L59.2363 133.623L76.8633 123.426L94.4903 133.623Z" fill="url(#paint_illustration_21_linear)"></path><g opacity="0.4"><path opacity="0.4" d="M100.077 113.758C102.082 114.912 102.082 117.805 100.077 118.959L78.3589 131.454C77.4327 131.987 76.2929 131.987 75.3667 131.454L53.6487 118.959C51.6434 117.805 51.6434 114.912 53.6487 113.758L75.3667 101.263C76.2929 100.73 77.4327 100.73 78.3589 101.263L100.077 113.758Z" fill="url(#paint_illustration_22_linear)"></path><path opacity="0.4" d="M76.8628 152.891L52.7225 139.12C51.7867 138.586 51.209 137.592 51.209 136.514V116.641L75.3662 130.63C76.2925 131.166 76.8628 132.156 76.8628 133.226V152.891Z" fill="url(#paint_illustration_23_linear)"></path><path opacity="0.4" d="M76.8618 152.891L101.002 139.12C101.938 138.586 102.516 137.592 102.516 136.514V116.641L78.3584 130.63C77.4321 131.166 76.8618 132.156 76.8618 133.226V152.891Z" fill="url(#paint_illustration_24_linear)"></path></g><path d="M99.664 113.899L76.8632 126.975L54.0625 113.899L76.8632 100.762L99.664 113.899Z" fill="url(#paint_illustration_25_linear)"></path><path d="M99.664 113.602L76.8632 126.738L54.0625 113.602V132.137L76.8632 145.274L99.664 132.137V113.602Z" fill="url(#paint_illustration_26_linear)"></path><path d="M100.077 113.758C102.082 114.912 102.082 117.805 100.077 118.959L78.3589 131.454C77.4327 131.987 76.2929 131.987 75.3667 131.454L53.6487 118.959C51.6434 117.805 51.6434 114.912 53.6487 113.758L75.3667 101.263C76.2929 100.73 77.4327 100.73 78.3589 101.263L100.077 113.758Z" fill="url(#paint_illustration_27_linear)"></path><path d="M94.4903 116.358L76.8633 126.495L59.2363 116.358L76.8633 106.16L94.4903 116.358Z" fill="url(#paint_illustration_28_linear)"></path><g opacity="0.4"><path opacity="0.4" d="M100.077 96.473C102.082 97.6267 102.082 100.52 100.077 101.674L78.3589 114.169C77.4327 114.702 76.2929 114.702 75.3667 114.169L53.6487 101.674C51.6434 100.52 51.6434 97.6267 53.6487 96.473L75.3667 83.9779C76.2929 83.445 77.4327 83.445 78.3589 83.9779L100.077 96.473Z" fill="url(#paint_illustration_29_linear)"></path><path opacity="0.4" d="M76.8628 135.606L52.7225 121.835C51.7867 121.301 51.209 120.307 51.209 119.229V99.3555L75.3662 113.345C76.2925 113.881 76.8628 114.871 76.8628 115.941V135.606Z" fill="url(#paint_illustration_30_linear)"></path><path opacity="0.4" d="M76.8618 135.606L101.002 121.835C101.938 121.301 102.516 120.307 102.516 119.229V99.3555L78.3584 113.345C77.4321 113.881 76.8618 114.871 76.8618 115.941V135.606Z" fill="url(#paint_illustration_31_linear)"></path></g><path d="M99.6601 96.6173L76.8593 109.694L54.0586 96.6173L76.8593 83.4805L99.6601 96.6173Z" fill="url(#paint_illustration_32_linear)"></path><path d="M99.6601 96.3203L76.8593 109.457L54.0586 96.3203V114.856L76.8593 127.993L99.6601 114.856V96.3203Z" fill="url(#paint_illustration_33_linear)"></path><path d="M100.077 96.473C102.082 97.6267 102.082 100.52 100.077 101.674L78.3589 114.169C77.4327 114.702 76.2929 114.702 75.3667 114.169L53.6487 101.674C51.6434 100.52 51.6434 97.6267 53.6487 96.473L75.3667 83.9779C76.2929 83.445 77.4327 83.445 78.3589 83.9779L100.077 96.473Z" fill="url(#paint_illustration_34_linear)"></path><path d="M94.4903 99.0725L76.8633 109.21L59.2363 99.0725L76.8633 88.875L94.4903 99.0725Z" fill="url(#paint_illustration_35_linear)"></path><path d="M100.079 96.473C102.084 97.6267 102.084 100.52 100.079 101.674L78.3608 114.169C77.4346 114.702 76.2949 114.702 75.3687 114.169L53.6506 101.674C51.6454 100.52 51.6454 97.6267 53.6506 96.473L75.3687 83.9779C76.2949 83.445 77.4346 83.445 78.3608 83.9779L100.079 96.473Z" fill="url(#paint_illustration_36_linear)"></path><path d="M96.8984 99.0733L76.865 110.591L56.7715 99.0733L76.865 87.4961L96.8984 99.0733Z" fill="#1168E0"></path><path opacity="0.53" d="M94.7305 100.332L76.8629 110.59L58.875 100.212L76.8629 89.8945L94.7305 100.332Z" fill="url(#paint_illustration_37_linear)"></path><path d="M131.482 308.089C131.482 306.779 130.573 305.412 128.809 304.387L71.4252 271.233C67.8991 269.183 62.2119 269.183 58.7427 271.233L7.55752 301.026C5.79448 302.051 4.94141 303.361 4.94141 304.728C4.94141 306.039 4.94141 303.589 4.94141 304.956C4.94141 306.323 5.7945 307.634 7.61442 308.659L64.9986 341.812C68.5247 343.863 74.212 343.863 77.6812 341.812L128.866 312.02C130.572 310.994 131.426 309.741 131.482 308.431C131.482 307.007 131.482 309.399 131.482 308.089Z" fill="url(#paint_illustration_38_linear)"></path><path d="M6.76158 302.849L66.7051 337.484C67.8994 338.167 69.6056 338.566 71.4255 338.566C73.2454 338.566 74.9516 338.167 76.1459 337.484L129.606 306.381C129.947 306.153 129.947 305.527 129.549 305.299L69.6056 270.664C68.4113 269.981 66.7051 269.582 64.8851 269.582C63.0652 269.582 61.3591 269.981 60.1647 270.664L6.70469 301.767C6.42032 301.938 6.42034 302.621 6.76158 302.849Z" fill="url(#paint_illustration_39_linear)"></path><path d="M90.5499 216.297L90.9719 216.037L70.895 203.5L50.7578 216.037L51.2401 216.297L50.7578 216.557L51.2401 216.881L50.7578 217.141L51.2401 217.401L50.7578 217.726L51.2401 217.986L50.7578 218.246L51.2401 218.505L50.7578 218.83L51.2401 219.09L50.7578 219.35L51.2401 219.675L50.7578 219.935L51.2401 220.194L50.7578 220.519L51.2401 220.779L50.7578 221.039L51.2401 221.364L50.7578 221.623L51.2401 221.883L50.7578 222.208L51.2401 222.468L50.7578 222.728L51.2401 223.053L50.7578 223.312L51.2401 223.572L50.7578 223.897L51.2401 224.157L50.7578 224.417L51.2401 224.741L50.7578 225.001L51.2401 225.261L50.7578 225.586L51.2401 225.846L50.7578 226.106L51.2401 226.365L50.7578 226.69L51.2401 226.95L50.7578 227.21L51.2401 227.535L50.7578 227.794L51.2401 228.054L50.7578 228.379L51.2401 228.639L50.7578 228.899L51.2401 229.224L50.7578 229.483L51.2401 229.743L50.7578 230.068L51.2401 230.328L50.7578 230.588L51.2401 230.913L50.7578 231.172L51.2401 231.432L50.7578 231.757L51.2401 232.017L50.7578 232.277L51.2401 232.601L50.7578 232.861L51.2401 233.121L50.7578 233.446L51.2401 233.706L50.7578 233.966L51.2401 234.29L50.7578 234.55L51.2401 234.81L50.7578 235.07L51.2401 235.395L50.7578 235.654L51.2401 235.914L50.7578 236.239L51.2401 236.499L50.7578 236.759L51.2401 237.084L50.7578 237.343L51.2401 237.603L50.7578 237.928L51.2401 238.188L50.7578 238.448L51.2401 238.772L50.7578 239.032L51.2401 239.292L50.7578 239.617L51.2401 239.877L50.7578 240.137L51.2401 240.461L50.7578 240.721L51.2401 240.981L50.7578 241.306L51.2401 241.566L50.7578 241.826L51.2401 242.15L50.7578 242.41L51.2401 242.67L50.7578 242.93L51.2401 243.255L50.7578 243.514L51.2401 243.774L50.7578 244.099L51.2401 244.359L50.7578 244.619L51.2401 244.944L50.7578 245.203L51.2401 245.463L50.7578 245.788L51.2401 246.048L50.7578 246.308L51.2401 246.632L50.7578 246.892L51.2401 247.152L50.7578 247.477L51.2401 247.737L50.7578 247.997L51.2401 248.321L50.7578 248.581L51.2401 248.841L50.7578 249.166L51.2401 249.426L50.7578 249.686L51.2401 250.01L50.7578 250.27L51.2401 250.53L50.7578 250.79L51.2401 251.115L50.7578 251.374L51.2401 251.634L50.7578 251.959L51.2401 252.219L50.7578 252.479L51.2401 252.804L50.7578 253.063L51.2401 253.323L50.7578 253.648L51.2401 253.908L50.7578 254.168L51.2401 254.492L50.7578 254.752L51.2401 255.012L50.7578 255.337L51.2401 255.597L50.7578 255.857L51.2401 256.181L50.7578 256.441L51.2401 256.701L50.7578 257.026L51.2401 257.286L50.7578 257.546L51.2401 257.87L50.7578 258.13L51.2401 258.39L50.7578 258.65L51.2401 258.975L50.7578 259.234L51.2401 259.494L50.7578 259.819L51.2401 260.079L50.7578 260.339L51.2401 260.664L50.7578 260.923L51.2401 261.183L50.7578 261.508L70.895 273.98L90.9719 261.508L90.5499 261.183L90.9719 260.923L90.5499 260.664L90.9719 260.339L90.5499 260.079L90.9719 259.819L90.5499 259.494L90.9719 259.234L90.5499 258.975L90.9719 258.65L90.5499 258.39L90.9719 258.13L90.5499 257.87L90.9719 257.546L90.5499 257.286L90.9719 257.026L90.5499 256.701L90.9719 256.441L90.5499 256.181L90.9719 255.857L90.5499 255.597L90.9719 255.337L90.5499 255.012L90.9719 254.752L90.5499 254.492L90.9719 254.168L90.5499 253.908L90.9719 253.648L90.5499 253.323L90.9719 253.063L90.5499 252.804L90.9719 252.479L90.5499 252.219L90.9719 251.959L90.5499 251.634L90.9719 251.374L90.5499 251.115L90.9719 250.79L90.5499 250.53L90.9719 250.27L90.5499 250.01L90.9719 249.686L90.5499 249.426L90.9719 249.166L90.5499 248.841L90.9719 248.581L90.5499 248.321L90.9719 247.997L90.5499 247.737L90.9719 247.477L90.5499 247.152L90.9719 246.892L90.5499 246.632L90.9719 246.308L90.5499 246.048L90.9719 245.788L90.5499 245.463L90.9719 245.203L90.5499 244.944L90.9719 244.619L90.5499 244.359L90.9719 244.099L90.5499 243.774L90.9719 243.514L90.5499 243.255L90.9719 242.93L90.5499 242.67L90.9719 242.41L90.5499 242.15L90.9719 241.826L90.5499 241.566L90.9719 241.306L90.5499 240.981L90.9719 240.721L90.5499 240.461L90.9719 240.137L90.5499 239.877L90.9719 239.617L90.5499 239.292L90.9719 239.032L90.5499 238.772L90.9719 238.448L90.5499 238.188L90.9719 237.928L90.5499 237.603L90.9719 237.343L90.5499 237.084L90.9719 236.759L90.5499 236.499L90.9719 236.239L90.5499 235.914L90.9719 235.654L90.5499 235.395L90.9719 235.07L90.5499 234.81L90.9719 234.55L90.5499 234.225L90.9719 233.966L90.5499 233.706L90.9719 233.446L90.5499 233.121L90.9719 232.861L90.5499 232.601L90.9719 232.277L90.5499 232.017L90.9719 231.757L90.5499 231.432L90.9719 231.172L90.5499 230.913L90.9719 230.588L90.5499 230.328L90.9719 230.068L90.5499 229.743L90.9719 229.483L90.5499 229.224L90.9719 228.899L90.5499 228.639L90.9719 228.379L90.5499 228.054L90.9719 227.794L90.5499 227.535L90.9719 227.21L90.5499 226.95L90.9719 226.69L90.5499 226.365L90.9719 226.106L90.5499 225.846L90.9719 225.586L90.5499 225.261L90.9719 225.001L90.5499 224.741L90.9719 224.417L90.5499 224.157L90.9719 223.897L90.5499 223.572L90.9719 223.312L90.5499 223.053L90.9719 222.728L90.5499 222.468L90.9719 222.208L90.5499 221.883L90.9719 221.623L90.5499 221.364L90.9719 221.039L90.5499 220.779L90.9719 220.519L90.5499 220.194L90.9719 219.935L90.5499 219.675L90.9719 219.35L90.5499 219.09L90.9719 218.83L90.5499 218.505L90.9719 218.246L90.5499 217.986L90.9719 217.726L90.5499 217.401L90.9719 217.141L90.5499 216.881L90.9719 216.557L90.5499 216.297Z" fill="url(#paint_illustration_40_linear)" fill-opacity="0.3" style="mix-blend-mode:soft-light"></path><g opacity="0.4"><path opacity="0.4" d="M94.0769 288.024C96.0822 289.177 96.0822 292.071 94.0769 293.224L72.3589 305.72C71.4327 306.252 70.2929 306.252 69.3667 305.72L47.6487 293.224C45.6434 292.071 45.6434 289.177 47.6487 288.024L69.3667 275.529C70.2929 274.996 71.4327 274.996 72.3589 275.529L94.0769 288.024Z" fill="url(#paint_illustration_41_linear)"></path><path opacity="0.4" d="M70.8628 324.393L46.7225 310.622C45.7867 310.088 45.209 309.094 45.209 308.016V290.906L69.3662 304.896C70.2925 305.432 70.8628 306.421 70.8628 307.492V324.393Z" fill="url(#paint_illustration_42_linear)"></path><path opacity="0.4" d="M70.8618 324.393L95.0021 310.622C95.9379 310.088 96.5156 309.094 96.5156 308.016V290.906L72.3584 304.896C71.4321 305.432 70.8618 306.421 70.8618 307.492V324.393Z" fill="url(#paint_illustration_43_linear)"></path></g><path d="M93.6601 288.164L70.8593 301.241L48.0586 288.164L70.8593 275.027L93.6601 288.164Z" fill="url(#paint_illustration_44_linear)"></path><path d="M93.6601 287.867L70.8593 301.004L48.0586 287.867V306.403L70.8593 319.54L93.6601 306.403V287.867Z" fill="url(#paint_illustration_45_linear)"></path><path d="M94.0769 288.024C96.0822 289.177 96.0822 292.071 94.0769 293.224L72.3589 305.72C71.4327 306.252 70.2929 306.252 69.3667 305.72L47.6487 293.224C45.6434 292.071 45.6434 289.177 47.6487 288.024L69.3667 275.529C70.2929 274.996 71.4327 274.996 72.3589 275.529L94.0769 288.024Z" fill="url(#paint_illustration_46_linear)"></path><path d="M88.4903 290.623L70.8633 300.761L53.2363 290.623L70.8633 280.426L88.4903 290.623Z" fill="url(#paint_illustration_47_linear)"></path><g opacity="0.4"><path opacity="0.4" d="M94.0769 270.758C96.0822 271.912 96.0822 274.805 94.0769 275.959L72.3589 288.454C71.4327 288.987 70.2929 288.987 69.3667 288.454L47.6487 275.959C45.6434 274.805 45.6434 271.912 47.6487 270.758L69.3667 258.263C70.2929 257.73 71.4327 257.73 72.3589 258.263L94.0769 270.758Z" fill="url(#paint_illustration_48_linear)"></path><path opacity="0.4" d="M70.8628 309.891L46.7225 296.12C45.7867 295.586 45.209 294.592 45.209 293.514V273.641L69.3662 287.63C70.2925 288.166 70.8628 289.156 70.8628 290.226V309.891Z" fill="url(#paint_illustration_49_linear)"></path><path opacity="0.4" d="M70.8618 309.891L95.0021 296.12C95.9379 295.586 96.5156 294.592 96.5156 293.514V273.641L72.3584 287.63C71.4321 288.166 70.8618 289.156 70.8618 290.226V309.891Z" fill="url(#paint_illustration_50_linear)"></path></g><path d="M93.664 270.899L70.8632 283.975L48.0625 270.899L70.8632 257.762L93.664 270.899Z" fill="url(#paint_illustration_51_linear)"></path><path d="M93.664 270.602L70.8632 283.738L48.0625 270.602V289.137L70.8632 302.274L93.664 289.137V270.602Z" fill="url(#paint_illustration_52_linear)"></path><path d="M94.0769 270.758C96.0822 271.912 96.0822 274.805 94.0769 275.959L72.3589 288.454C71.4327 288.987 70.2929 288.987 69.3667 288.454L47.6487 275.959C45.6434 274.805 45.6434 271.912 47.6487 270.758L69.3667 258.263C70.2929 257.73 71.4327 257.73 72.3589 258.263L94.0769 270.758Z" fill="url(#paint_illustration_53_linear)"></path><path d="M88.4903 273.358L70.8633 283.495L53.2363 273.358L70.8633 263.16L88.4903 273.358Z" fill="url(#paint_illustration_54_linear)"></path><g opacity="0.4"><path opacity="0.4" d="M94.0769 253.473C96.0822 254.627 96.0822 257.52 94.0769 258.674L72.3589 271.169C71.4327 271.702 70.2929 271.702 69.3667 271.169L47.6487 258.674C45.6434 257.52 45.6434 254.627 47.6487 253.473L69.3667 240.978C70.2929 240.445 71.4327 240.445 72.3589 240.978L94.0769 253.473Z" fill="url(#paint_illustration_55_linear)"></path><path opacity="0.4" d="M70.8628 292.606L46.7225 278.835C45.7867 278.301 45.209 277.307 45.209 276.229V256.355L69.3662 270.345C70.2925 270.881 70.8628 271.871 70.8628 272.941V292.606Z" fill="url(#paint_illustration_56_linear)"></path><path opacity="0.4" d="M70.8618 292.606L95.0021 278.835C95.9379 278.301 96.5156 277.307 96.5156 276.229V256.355L72.3584 270.345C71.4321 270.881 70.8618 271.871 70.8618 272.941V292.606Z" fill="url(#paint_illustration_57_linear)"></path></g><path d="M93.6601 253.617L70.8593 266.694L48.0586 253.617L70.8593 240.48L93.6601 253.617Z" fill="url(#paint_illustration_58_linear)"></path><path d="M93.6601 253.32L70.8593 266.457L48.0586 253.32V271.856L70.8593 284.993L93.6601 271.856V253.32Z" fill="url(#paint_illustration_59_linear)"></path><path d="M94.0769 253.473C96.0822 254.627 96.0822 257.52 94.0769 258.674L72.3589 271.169C71.4327 271.702 70.2929 271.702 69.3667 271.169L47.6487 258.674C45.6434 257.52 45.6434 254.627 47.6487 253.473L69.3667 240.978C70.2929 240.445 71.4327 240.445 72.3589 240.978L94.0769 253.473Z" fill="url(#paint_illustration_60_linear)"></path><path d="M88.4903 256.073L70.8633 266.21L53.2363 256.073L70.8633 245.875L88.4903 256.073Z" fill="url(#paint_illustration_61_linear)"></path><path d="M94.0789 253.473C96.0841 254.627 96.0841 257.52 94.0789 258.674L72.3608 271.169C71.4346 271.702 70.2949 271.702 69.3687 271.169L47.6506 258.674C45.6454 257.52 45.6454 254.627 47.6506 253.473L69.3687 240.978C70.2949 240.445 71.4346 240.445 72.3608 240.978L94.0789 253.473Z" fill="url(#paint_illustration_62_linear)"></path><path d="M90.8984 256.073L70.865 267.591L50.7715 256.073L70.865 244.496L90.8984 256.073Z" fill="#1168E0"></path><path opacity="0.53" d="M88.7305 257.332L70.8629 267.59L52.875 257.212L70.8629 246.895L88.7305 257.332Z" fill="url(#paint_illustration_63_linear)"></path><path class="no_mobile" d="M366.442 131.501L397.76 113.319C399.124 112.501 399.942 111.138 399.942 109.501C399.942 107.956 399.124 106.593 397.76 105.775L314.123 57.7725C313.305 57.318 312.85 56.4999 312.759 55.5C312.759 54.591 313.214 53.682 314.032 53.2275L372.712 19.3204C376.168 17.2297 378.259 13.5028 378.259 9.50324L378.261 0H376.442L376.44 9.50324C376.44 12.8665 374.622 16.048 371.712 17.7751L313.032 51.6822C311.668 52.5003 310.85 53.9547 310.94 55.5C310.94 57.0453 311.759 58.4997 313.123 59.3178L396.851 107.411C397.669 107.865 398.124 108.683 398.124 109.592C398.124 110.501 397.669 111.319 396.851 111.865L363.942 130.501L366.442 131.501Z" fill="#00FFFF"></path><path d="M171.889 107.514L180.884 102.27L185.881 103.379L176.886 108.623L171.889 107.514Z" fill="url(#paint_illustration_64_linear)"></path><path d="M237.954 144.675L228.959 149.97C223.062 153.45 214.916 152.945 206.121 147.802C193.328 140.338 181.984 125.109 176.887 108.619L185.882 103.324C190.979 119.814 202.323 135.043 215.116 142.507C223.912 147.65 232.057 148.155 237.954 144.675Z" fill="url(#paint_illustration_65_linear)"></path><path d="M176.887 108.623L185.882 103.379L188.58 103.984L179.585 109.229L176.887 108.623Z" fill="url(#paint_illustration_66_linear)"></path><path d="M246.799 130.25C245.6 137.159 242.452 142.101 237.954 144.723L228.959 150.018C233.457 147.395 236.605 142.454 237.804 135.545C240.503 133.931 244.101 131.813 246.799 130.25Z" fill="url(#paint_illustration_67_linear)"></path><path d="M237.955 134.741L246.95 129.496L251.998 133.379L243.002 138.624L237.955 134.741Z" fill="url(#paint_illustration_68_linear)"></path><path d="M179.584 109.225L188.579 103.98L190.978 104.485L181.983 109.78L179.584 109.225Z" fill="url(#paint_illustration_69_linear)"></path><path fill-rule="evenodd" clip-rule="evenodd" d="M181.983 109.777L172.139 98.0273L166.941 106.398L171.889 107.508L176.886 108.617L181.983 109.777ZM243.052 138.627L237.954 134.744C237.929 134.82 237.917 134.896 237.904 134.971C237.892 135.047 237.879 135.122 237.854 135.198C237.854 135.249 237.842 135.299 237.829 135.349C237.817 135.4 237.804 135.45 237.804 135.501C235.056 151.486 221.563 156.832 206.121 147.805C193.328 140.342 181.984 125.113 176.887 108.623L171.89 107.513C177.737 126.928 191.029 144.981 206.121 153.756C224.412 164.396 240.253 157.891 243.052 138.627Z" fill="url(#paint_illustration_70_linear)"></path><path d="M172.139 98.0332L181.134 92.7383L190.979 104.488L181.983 109.783L172.139 98.0332Z" fill="url(#paint_illustration_71_linear)"></path><path d="M241.651 151.033L232.656 156.327C238.053 153.151 241.801 147.15 243.051 138.678L252.046 133.383C250.797 141.855 246.999 147.856 241.651 151.033Z" fill="url(#paint_illustration_72_linear)"></path><path d="M230.957 112.608L239.952 107.363L249.497 119.416L240.552 124.71L230.957 112.608Z" fill="url(#paint_illustration_73_linear)"></path><path d="M230.957 112.608L239.952 107.363L249.497 119.416L240.552 124.71L230.957 112.608Z" fill="url(#paint_illustration_74_linear)"></path><path d="M215.366 68.1758C228.409 75.7904 240.203 91.9273 245.05 108.77L236.055 114.065C231.208 97.2727 219.464 81.0853 206.371 73.4707C209.02 71.857 212.668 69.739 215.366 68.1758Z" fill="url(#paint_illustration_75_linear)"></path><path d="M192.526 65.9138C198.423 62.4847 206.519 63.0394 215.364 68.183L206.369 73.478C197.524 68.3343 189.428 67.7796 183.531 71.2087C186.23 69.595 189.828 67.5275 192.526 65.9138Z" fill="url(#paint_illustration_76_linear)"></path><path d="M236.004 114.021L244.999 108.727L250.046 110.139L241.051 115.383L236.004 114.021Z" fill="url(#paint_illustration_77_linear)"></path><path d="M246.152 116.791L255.147 111.547L249.5 119.414L240.555 124.709L246.152 116.791Z" fill="url(#paint_illustration_78_linear)"></path><path d="M246.152 116.791L255.147 111.547L249.5 119.414L240.555 124.709L246.152 116.791Z" fill="url(#paint_illustration_79_linear)"></path><path fill-rule="evenodd" clip-rule="evenodd" d="M239.954 107.359L242.053 107.914L245.001 108.721L236.006 114.016L233.058 113.209L230.959 112.604L239.954 107.359ZM250.048 110.134L241.053 115.379L246.15 116.791L255.145 111.546L250.048 110.134Z" fill="url(#paint_illustration_80_linear)"></path><path d="M215.367 62.1773C205.122 56.2268 195.677 55.5713 188.831 59.5551L179.836 64.85C186.682 60.8662 196.127 61.4713 206.372 67.4722C221.764 76.4484 235.606 95.611 241.053 115.429L250.048 110.134C244.601 90.3161 230.759 71.1535 215.367 62.1773Z" fill="url(#paint_illustration_81_linear)"></path><path fill-rule="evenodd" clip-rule="evenodd" d="M241.037 115.375C235.579 95.5755 221.748 76.4392 206.37 67.4711C188.429 57.0325 173.038 62.8317 169.689 81.2883L174.737 85.373C174.762 85.2973 174.774 85.2217 174.787 85.1461C174.799 85.0704 174.812 84.9948 174.837 84.9191C174.837 84.8982 174.845 84.8687 174.855 84.8341C174.87 84.7852 174.887 84.7261 174.887 84.667C178.035 69.3369 191.178 64.5967 206.32 73.472C219.399 81.0785 231.132 97.2396 235.989 114.013L233.056 113.211L230.958 112.605L240.552 124.708L246.149 116.791L241.052 115.379L241.037 115.375Z" fill="url(#paint_illustration_82_linear)"></path><path d="M318.441 292L251.941 253.899L253.941 252.5L318.441 289.602V292Z" fill="#00FFFF"></path><path d="M403.482 306.089C403.482 304.779 402.573 303.412 400.809 302.387L343.425 269.233C339.899 267.183 334.212 267.183 330.743 269.233L279.558 299.026C277.794 300.051 276.941 301.361 276.941 302.728C276.941 304.039 276.941 301.589 276.941 302.956C276.941 304.323 277.794 305.634 279.614 306.659L336.999 339.812C340.525 341.863 346.212 341.863 349.681 339.812L400.866 310.02C402.573 308.994 403.426 307.741 403.482 306.431C403.482 305.007 403.482 307.399 403.482 306.089Z" fill="url(#paint_illustration_83_linear)"></path><path d="M278.762 300.849L338.705 335.484C339.899 336.167 341.606 336.566 343.425 336.566C345.245 336.566 346.952 336.167 348.146 335.484L401.606 304.381C401.947 304.153 401.947 303.527 401.549 303.299L341.606 268.664C340.411 267.981 338.705 267.582 336.885 267.582C335.065 267.582 333.359 267.981 332.165 268.664L278.705 299.767C278.42 299.938 278.42 300.621 278.762 300.849Z" fill="url(#paint_illustration_84_linear)"></path><path d="M362.55 214.297L362.972 214.037L342.895 201.5L322.758 214.037L323.24 214.297L322.758 214.557L323.24 214.881L322.758 215.141L323.24 215.401L322.758 215.726L323.24 215.986L322.758 216.246L323.24 216.505L322.758 216.83L323.24 217.09L322.758 217.35L323.24 217.675L322.758 217.935L323.24 218.194L322.758 218.519L323.24 218.779L322.758 219.039L323.24 219.364L322.758 219.623L323.24 219.883L322.758 220.208L323.24 220.468L322.758 220.728L323.24 221.053L322.758 221.312L323.24 221.572L322.758 221.897L323.24 222.157L322.758 222.417L323.24 222.741L322.758 223.001L323.24 223.261L322.758 223.586L323.24 223.846L322.758 224.106L323.24 224.365L322.758 224.69L323.24 224.95L322.758 225.21L323.24 225.535L322.758 225.794L323.24 226.054L322.758 226.379L323.24 226.639L322.758 226.899L323.24 227.224L322.758 227.483L323.24 227.743L322.758 228.068L323.24 228.328L322.758 228.588L323.24 228.913L322.758 229.172L323.24 229.432L322.758 229.757L323.24 230.017L322.758 230.277L323.24 230.601L322.758 230.861L323.24 231.121L322.758 231.446L323.24 231.706L322.758 231.966L323.24 232.29L322.758 232.55L323.24 232.81L322.758 233.07L323.24 233.395L322.758 233.654L323.24 233.914L322.758 234.239L323.24 234.499L322.758 234.759L323.24 235.084L322.758 235.343L323.24 235.603L322.758 235.928L323.24 236.188L322.758 236.448L323.24 236.772L322.758 237.032L323.24 237.292L322.758 237.617L323.24 237.877L322.758 238.137L323.24 238.461L322.758 238.721L323.24 238.981L322.758 239.306L323.24 239.566L322.758 239.826L323.24 240.15L322.758 240.41L323.24 240.67L322.758 240.93L323.24 241.255L322.758 241.514L323.24 241.774L322.758 242.099L323.24 242.359L322.758 242.619L323.24 242.944L322.758 243.203L323.24 243.463L322.758 243.788L323.24 244.048L322.758 244.308L323.24 244.632L322.758 244.892L323.24 245.152L322.758 245.477L323.24 245.737L322.758 245.997L323.24 246.321L322.758 246.581L323.24 246.841L322.758 247.166L323.24 247.426L322.758 247.686L323.24 248.01L322.758 248.27L323.24 248.53L322.758 248.79L323.24 249.115L322.758 249.374L323.24 249.634L322.758 249.959L323.24 250.219L322.758 250.479L323.24 250.804L322.758 251.063L323.24 251.323L322.758 251.648L323.24 251.908L322.758 252.168L323.24 252.492L322.758 252.752L323.24 253.012L322.758 253.337L323.24 253.597L322.758 253.857L323.24 254.181L322.758 254.441L323.24 254.701L322.758 255.026L323.24 255.286L322.758 255.546L323.24 255.87L322.758 256.13L323.24 256.39L322.758 256.65L323.24 256.975L322.758 257.234L323.24 257.494L322.758 257.819L323.24 258.079L322.758 258.339L323.24 258.664L322.758 258.923L323.24 259.183L322.758 259.508L342.895 271.98L362.972 259.508L362.55 259.183L362.972 258.923L362.55 258.664L362.972 258.339L362.55 258.079L362.972 257.819L362.55 257.494L362.972 257.234L362.55 256.975L362.972 256.65L362.55 256.39L362.972 256.13L362.55 255.87L362.972 255.546L362.55 255.286L362.972 255.026L362.55 254.701L362.972 254.441L362.55 254.181L362.972 253.857L362.55 253.597L362.972 253.337L362.55 253.012L362.972 252.752L362.55 252.492L362.972 252.168L362.55 251.908L362.972 251.648L362.55 251.323L362.972 251.063L362.55 250.804L362.972 250.479L362.55 250.219L362.972 249.959L362.55 249.634L362.972 249.374L362.55 249.115L362.972 248.79L362.55 248.53L362.972 248.27L362.55 248.01L362.972 247.686L362.55 247.426L362.972 247.166L362.55 246.841L362.972 246.581L362.55 246.321L362.972 245.997L362.55 245.737L362.972 245.477L362.55 245.152L362.972 244.892L362.55 244.632L362.972 244.308L362.55 244.048L362.972 243.788L362.55 243.463L362.972 243.203L362.55 242.944L362.972 242.619L362.55 242.359L362.972 242.099L362.55 241.774L362.972 241.514L362.55 241.255L362.972 240.93L362.55 240.67L362.972 240.41L362.55 240.15L362.972 239.826L362.55 239.566L362.972 239.306L362.55 238.981L362.972 238.721L362.55 238.461L362.972 238.137L362.55 237.877L362.972 237.617L362.55 237.292L362.972 237.032L362.55 236.772L362.972 236.448L362.55 236.188L362.972 235.928L362.55 235.603L362.972 235.343L362.55 235.084L362.972 234.759L362.55 234.499L362.972 234.239L362.55 233.914L362.972 233.654L362.55 233.395L362.972 233.07L362.55 232.81L362.972 232.55L362.55 232.225L362.972 231.966L362.55 231.706L362.972 231.446L362.55 231.121L362.972 230.861L362.55 230.601L362.972 230.277L362.55 230.017L362.972 229.757L362.55 229.432L362.972 229.172L362.55 228.913L362.972 228.588L362.55 228.328L362.972 228.068L362.55 227.743L362.972 227.483L362.55 227.224L362.972 226.899L362.55 226.639L362.972 226.379L362.55 226.054L362.972 225.794L362.55 225.535L362.972 225.21L362.55 224.95L362.972 224.69L362.55 224.365L362.972 224.106L362.55 223.846L362.972 223.586L362.55 223.261L362.972 223.001L362.55 222.741L362.972 222.417L362.55 222.157L362.972 221.897L362.55 221.572L362.972 221.312L362.55 221.053L362.972 220.728L362.55 220.468L362.972 220.208L362.55 219.883L362.972 219.623L362.55 219.364L362.972 219.039L362.55 218.779L362.972 218.519L362.55 218.194L362.972 217.935L362.55 217.675L362.972 217.35L362.55 217.09L362.972 216.83L362.55 216.505L362.972 216.246L362.55 215.986L362.972 215.726L362.55 215.401L362.972 215.141L362.55 214.881L362.972 214.557L362.55 214.297Z" fill="url(#paint_illustration_85_linear)" fill-opacity="0.3" style="mix-blend-mode:soft-light"></path><g opacity="0.4"><path opacity="0.4" d="M366.077 286.024C368.082 287.177 368.082 290.071 366.077 291.224L344.359 303.72C343.433 304.252 342.293 304.252 341.367 303.72L319.649 291.224C317.643 290.071 317.643 287.177 319.649 286.024L341.367 273.529C342.293 272.996 343.433 272.996 344.359 273.529L366.077 286.024Z" fill="url(#paint_illustration_86_linear)"></path><path opacity="0.4" d="M342.863 322.393L318.722 308.622C317.787 308.088 317.209 307.094 317.209 306.016V288.906L341.366 302.896C342.293 303.432 342.863 304.421 342.863 305.492V322.393Z" fill="url(#paint_illustration_87_linear)"></path><path opacity="0.4" d="M342.862 322.393L367.002 308.622C367.938 308.088 368.516 307.094 368.516 306.016V288.906L344.358 302.896C343.432 303.432 342.862 304.421 342.862 305.492V322.393Z" fill="url(#paint_illustration_88_linear)"></path></g><path d="M365.66 286.164L342.859 299.241L320.059 286.164L342.859 273.027L365.66 286.164Z" fill="url(#paint_illustration_89_linear)"></path><path d="M365.66 285.867L342.859 299.004L320.059 285.867V304.403L342.859 317.54L365.66 304.403V285.867Z" fill="url(#paint_illustration_90_linear)"></path><path d="M366.077 286.024C368.082 287.177 368.082 290.071 366.077 291.224L344.359 303.72C343.433 304.252 342.293 304.252 341.367 303.72L319.649 291.224C317.643 290.071 317.643 287.177 319.649 286.024L341.367 273.529C342.293 272.996 343.433 272.996 344.359 273.529L366.077 286.024Z" fill="url(#paint_illustration_91_linear)"></path><path d="M360.49 288.623L342.863 298.761L325.236 288.623L342.863 278.426L360.49 288.623Z" fill="url(#paint_illustration_92_linear)"></path><g opacity="0.4"><path opacity="0.4" d="M366.077 268.758C368.082 269.912 368.082 272.805 366.077 273.959L344.359 286.454C343.433 286.987 342.293 286.987 341.367 286.454L319.649 273.959C317.643 272.805 317.643 269.912 319.649 268.758L341.367 256.263C342.293 255.73 343.433 255.73 344.359 256.263L366.077 268.758Z" fill="url(#paint_illustration_93_linear)"></path><path opacity="0.4" d="M342.863 307.891L318.722 294.12C317.787 293.586 317.209 292.592 317.209 291.514V271.641L341.366 285.63C342.293 286.166 342.863 287.156 342.863 288.226V307.891Z" fill="url(#paint_illustration_94_linear)"></path><path opacity="0.4" d="M342.862 307.891L367.002 294.12C367.938 293.586 368.516 292.592 368.516 291.514V271.641L344.358 285.63C343.432 286.166 342.862 287.156 342.862 288.226V307.891Z" fill="url(#paint_illustration_95_linear)"></path></g><path d="M365.664 268.899L342.863 281.975L320.062 268.899L342.863 255.762L365.664 268.899Z" fill="url(#paint_illustration_96_linear)"></path><path d="M365.664 268.602L342.863 281.738L320.062 268.602V287.137L342.863 300.274L365.664 287.137V268.602Z" fill="url(#paint_illustration_97_linear)"></path><path d="M366.077 268.758C368.082 269.912 368.082 272.805 366.077 273.959L344.359 286.454C343.433 286.987 342.293 286.987 341.367 286.454L319.649 273.959C317.643 272.805 317.643 269.912 319.649 268.758L341.367 256.263C342.293 255.73 343.433 255.73 344.359 256.263L366.077 268.758Z" fill="url(#paint_illustration_98_linear)"></path><path d="M360.49 271.358L342.863 281.495L325.236 271.358L342.863 261.16L360.49 271.358Z" fill="url(#paint_illustration_99_linear)"></path><g opacity="0.4"><path opacity="0.4" d="M366.077 251.473C368.082 252.627 368.082 255.52 366.077 256.674L344.359 269.169C343.433 269.702 342.293 269.702 341.367 269.169L319.649 256.674C317.643 255.52 317.643 252.627 319.649 251.473L341.367 238.978C342.293 238.445 343.433 238.445 344.359 238.978L366.077 251.473Z" fill="url(#paint_illustration_100_linear)"></path><path opacity="0.4" d="M342.863 290.606L318.722 276.835C317.787 276.301 317.209 275.307 317.209 274.229V254.355L341.366 268.345C342.293 268.881 342.863 269.871 342.863 270.941V290.606Z" fill="url(#paint_illustration_101_linear)"></path><path opacity="0.4" d="M342.862 290.606L367.002 276.835C367.938 276.301 368.516 275.307 368.516 274.229V254.355L344.358 268.345C343.432 268.881 342.862 269.871 342.862 270.941V290.606Z" fill="url(#paint_illustration_102_linear)"></path></g><path d="M365.66 251.617L342.859 264.694L320.059 251.617L342.859 238.48L365.66 251.617Z" fill="url(#paint_illustration_103_linear)"></path><path d="M365.66 251.32L342.859 264.457L320.059 251.32V269.856L342.859 282.993L365.66 269.856V251.32Z" fill="url(#paint_illustration_104_linear)"></path><path d="M366.077 251.473C368.082 252.627 368.082 255.52 366.077 256.674L344.359 269.169C343.433 269.702 342.293 269.702 341.367 269.169L319.649 256.674C317.643 255.52 317.643 252.627 319.649 251.473L341.367 238.978C342.293 238.445 343.433 238.445 344.359 238.978L366.077 251.473Z" fill="url(#paint_illustration_105_linear)"></path><path d="M360.49 254.073L342.863 264.21L325.236 254.073L342.863 243.875L360.49 254.073Z" fill="url(#paint_illustration_106_linear)"></path><path d="M366.079 251.473C368.084 252.627 368.084 255.52 366.079 256.674L344.361 269.169C343.435 269.702 342.295 269.702 341.369 269.169L319.651 256.674C317.645 255.52 317.645 252.627 319.651 251.473L341.369 238.978C342.295 238.445 343.435 238.445 344.361 238.978L366.079 251.473Z" fill="url(#paint_illustration_107_linear)"></path><path d="M362.898 254.073L342.865 265.591L322.771 254.073L342.865 242.496L362.898 254.073Z" fill="#1168E0"></path><path opacity="0.53" d="M360.731 255.332L342.863 265.59L324.875 255.212L342.863 244.895L360.731 255.332Z" fill="url(#paint_illustration_108_linear)"></path><path d="M94.9414 287.502L161.941 249L159.941 247.602L94.9414 285.103V287.502Z" fill="#00FFFF"></path><defs><linearGradient id="paint_illustration_0_linear" x1="421.095" y1="136.365" x2="263.208" y2="226.486" gradientUnits="userSpaceOnUse"><stop stop-color="#006DF0"></stop><stop offset="1" stop-color="#01FBFF"></stop></linearGradient><linearGradient id="paint_illustration_1_linear" x1="273.498" y1="148.024" x2="373.334" y2="118.678" gradientUnits="userSpaceOnUse"><stop stop-color="#6CFAFB"></stop><stop offset="0.865762" stop-color="#00B3FF"></stop></linearGradient><linearGradient id="paint_illustration_2_linear" x1="274.249" y1="137.332" x2="339.676" y2="183.648" gradientUnits="userSpaceOnUse"><stop stop-color="#43DDFF"></stop><stop offset="1" stop-color="#1168E0"></stop></linearGradient><linearGradient id="paint_illustration_3_linear" x1="128.369" y1="263.742" x2="294.358" y2="263.742" gradientUnits="userSpaceOnUse"><stop stop-color="#006DF0"></stop><stop offset="1" stop-color="#01FBFF"></stop></linearGradient><linearGradient id="paint_illustration_4_linear" x1="128.369" y1="256.062" x2="294.358" y2="256.062" gradientUnits="userSpaceOnUse"><stop stop-color="#006DF0"></stop><stop offset="1" stop-color="#01FBFF"></stop></linearGradient><linearGradient id="paint_illustration_5_linear" x1="128.369" y1="248.382" x2="294.358" y2="248.382" gradientUnits="userSpaceOnUse"><stop stop-color="#006DF0"></stop><stop offset="1" stop-color="#01FBFF"></stop></linearGradient><linearGradient id="paint_illustration_6_linear" x1="128.369" y1="240.703" x2="294.358" y2="240.703" gradientUnits="userSpaceOnUse"><stop stop-color="#006DF0"></stop><stop offset="1" stop-color="#01FBFF"></stop></linearGradient><linearGradient id="paint_illustration_7_linear" x1="128.369" y1="233.023" x2="294.358" y2="233.023" gradientUnits="userSpaceOnUse"><stop stop-color="#006DF0"></stop><stop offset="1" stop-color="#01FBFF"></stop></linearGradient><linearGradient id="paint_illustration_8_linear" x1="128.369" y1="225.241" x2="294.358" y2="225.241" gradientUnits="userSpaceOnUse"><stop stop-color="#01FBFF"></stop><stop offset="1" stop-color="#006DF0"></stop></linearGradient><linearGradient id="paint_illustration_9_linear" x1="202.058" y1="210.111" x2="217.982" y2="245.92" gradientUnits="userSpaceOnUse"><stop stop-color="#76FDFC"></stop><stop offset="1" stop-color="#1168E0"></stop></linearGradient><linearGradient id="paint_illustration_10_linear" x1="211.146" y1="247.996" x2="211.146" y2="207.64" gradientUnits="userSpaceOnUse"><stop stop-color="#32B7EE"></stop><stop offset="1" stop-color="#1173DF"></stop></linearGradient><linearGradient id="paint_illustration_11_linear" x1="211.406" y1="267.017" x2="211.406" y2="136.124" gradientUnits="userSpaceOnUse"><stop stop-color="#78FDFC"></stop><stop offset="1" stop-color="#74FCFC" stop-opacity="0"></stop></linearGradient><linearGradient id="paint_illustration_12_linear" x1="160.095" y1="135.365" x2="2.20782" y2="225.486" gradientUnits="userSpaceOnUse"><stop stop-color="#006DF0"></stop><stop offset="1" stop-color="#01FBFF"></stop></linearGradient><linearGradient id="paint_illustration_13_linear" x1="12.4982" y1="147.024" x2="112.334" y2="117.678" gradientUnits="userSpaceOnUse"><stop stop-color="#6CFAFB"></stop><stop offset="0.865762" stop-color="#00B3FF"></stop></linearGradient><linearGradient id="paint_illustration_14_linear" x1="76.8882" y1="118.303" x2="76.8882" y2="47.8044" gradientUnits="userSpaceOnUse"><stop stop-color="#14A0E0" stop-opacity="0.9529"></stop><stop offset="0.105018" stop-color="#0098DD"></stop><stop offset="0.254729" stop-color="#52B9E8" stop-opacity="0.8004"></stop><stop offset="0.845304" stop-color="white" stop-opacity="0"></stop></linearGradient><linearGradient id="paint_illustration_15_linear" x1="49.129" y1="133.604" x2="104.583" y2="133.604" gradientUnits="userSpaceOnUse"><stop stop-color="#00FFC4"></stop><stop offset="1" stop-color="#00B3FF"></stop></linearGradient><linearGradient id="paint_illustration_16_linear" x1="60.7018" y1="138.678" x2="72.2124" y2="174.058" gradientUnits="userSpaceOnUse"><stop stop-color="#12C2E9"></stop><stop offset="1" stop-color="#1168E0"></stop></linearGradient><linearGradient id="paint_illustration_17_linear" x1="93.0228" y1="138.678" x2="81.5122" y2="174.058" gradientUnits="userSpaceOnUse"><stop stop-color="#12C2E9"></stop><stop offset="1" stop-color="#1168E0"></stop></linearGradient><linearGradient id="paint_illustration_18_linear" x1="54.06" y1="131.146" x2="99.645" y2="131.146" gradientUnits="userSpaceOnUse"><stop stop-color="#00FFC4"></stop><stop offset="1" stop-color="#00B3FF"></stop></linearGradient><linearGradient id="paint_illustration_19_linear" x1="101.212" y1="146.089" x2="54.4086" y2="146.906" gradientUnits="userSpaceOnUse"><stop stop-color="#2FB0F4"></stop><stop offset="1" stop-color="#1168E0"></stop></linearGradient><linearGradient id="paint_illustration_20_linear" x1="49.129" y1="133.639" x2="94.2181" y2="120.756" gradientUnits="userSpaceOnUse"><stop stop-color="#6CFAFB"></stop><stop offset="0.865762" stop-color="#00B3FF"></stop></linearGradient><linearGradient id="paint_illustration_21_linear" x1="59.2096" y1="133.604" x2="94.5032" y2="133.604" gradientUnits="userSpaceOnUse"><stop stop-color="#0098DD"></stop><stop offset="1" stop-color="#1168E0"></stop></linearGradient><linearGradient id="paint_illustration_22_linear" x1="49.129" y1="116.339" x2="104.583" y2="116.339" gradientUnits="userSpaceOnUse"><stop stop-color="#00FFC4"></stop><stop offset="1" stop-color="#00B3FF"></stop></linearGradient><linearGradient id="paint_illustration_23_linear" x1="60.7018" y1="121.807" x2="73.9726" y2="159.487" gradientUnits="userSpaceOnUse"><stop stop-color="#12C2E9"></stop><stop offset="1" stop-color="#1168E0"></stop></linearGradient><linearGradient id="paint_illustration_24_linear" x1="93.0228" y1="121.807" x2="79.752" y2="159.487" gradientUnits="userSpaceOnUse"><stop stop-color="#12C2E9"></stop><stop offset="1" stop-color="#1168E0"></stop></linearGradient><linearGradient id="paint_illustration_25_linear" x1="54.0639" y1="113.88" x2="99.6489" y2="113.88" gradientUnits="userSpaceOnUse"><stop stop-color="#00FFC4"></stop><stop offset="1" stop-color="#00B3FF"></stop></linearGradient><linearGradient id="paint_illustration_26_linear" x1="109.104" y1="123.896" x2="70.2907" y2="133.284" gradientUnits="userSpaceOnUse"><stop stop-color="#43DDFF"></stop><stop offset="1" stop-color="#1168E0"></stop></linearGradient><linearGradient id="paint_illustration_27_linear" x1="49.129" y1="116.373" x2="94.2181" y2="103.491" gradientUnits="userSpaceOnUse"><stop stop-color="#6CFAFB"></stop><stop offset="0.865762" stop-color="#00B3FF"></stop></linearGradient><linearGradient id="paint_illustration_28_linear" x1="59.2096" y1="116.338" x2="94.5032" y2="116.338" gradientUnits="userSpaceOnUse"><stop stop-color="#0098DD"></stop><stop offset="1" stop-color="#1168E0"></stop></linearGradient><linearGradient id="paint_illustration_29_linear" x1="49.129" y1="99.0537" x2="104.583" y2="99.0537" gradientUnits="userSpaceOnUse"><stop stop-color="#00FFC4"></stop><stop offset="1" stop-color="#00B3FF"></stop></linearGradient><linearGradient id="paint_illustration_30_linear" x1="60.7018" y1="104.521" x2="73.9726" y2="142.202" gradientUnits="userSpaceOnUse"><stop stop-color="#12C2E9"></stop><stop offset="1" stop-color="#1168E0"></stop></linearGradient><linearGradient id="paint_illustration_31_linear" x1="93.0228" y1="104.521" x2="79.752" y2="142.202" gradientUnits="userSpaceOnUse"><stop stop-color="#12C2E9"></stop><stop offset="1" stop-color="#1168E0"></stop></linearGradient><linearGradient id="paint_illustration_32_linear" x1="54.06" y1="96.5991" x2="99.645" y2="96.5991" gradientUnits="userSpaceOnUse"><stop stop-color="#00FFC4"></stop><stop offset="1" stop-color="#00B3FF"></stop></linearGradient><linearGradient id="paint_illustration_33_linear" x1="101.212" y1="111.542" x2="54.4086" y2="112.359" gradientUnits="userSpaceOnUse"><stop stop-color="#2CA9F2"></stop><stop offset="1" stop-color="#1168E0"></stop></linearGradient><linearGradient id="paint_illustration_34_linear" x1="49.1616" y1="99.0381" x2="104.611" y2="99.0381" gradientUnits="userSpaceOnUse"><stop offset="0.303867" stop-color="#00FFFF"></stop><stop offset="1" stop-color="#059FF7"></stop></linearGradient><linearGradient id="paint_illustration_35_linear" x1="59.2096" y1="99.0529" x2="94.5032" y2="99.0529" gradientUnits="userSpaceOnUse"><stop stop-color="#0098DD"></stop><stop offset="1" stop-color="#1168E0"></stop></linearGradient><linearGradient id="paint_illustration_36_linear" x1="49.1309" y1="99.0881" x2="94.2201" y2="86.2055" gradientUnits="userSpaceOnUse"><stop stop-color="#6CFAFB"></stop><stop offset="0.865762" stop-color="#00B3FF"></stop></linearGradient><linearGradient id="paint_illustration_37_linear" x1="58.8961" y1="100.219" x2="94.7401" y2="100.219" gradientUnits="userSpaceOnUse"><stop offset="0.303867" stop-color="#00FFFF"></stop><stop offset="1" stop-color="#059FF7"></stop></linearGradient><linearGradient id="paint_illustration_38_linear" x1="154.095" y1="292.447" x2="-3.79219" y2="382.568" gradientUnits="userSpaceOnUse"><stop stop-color="#006DF0"></stop><stop offset="1" stop-color="#01FBFF"></stop></linearGradient><linearGradient id="paint_illustration_39_linear" x1="6.49816" y1="304.106" x2="106.334" y2="274.76" gradientUnits="userSpaceOnUse"><stop stop-color="#6CFAFB"></stop><stop offset="0.865762" stop-color="#00B3FF"></stop></linearGradient><linearGradient id="paint_illustration_40_linear" x1="70.8882" y1="275.303" x2="70.8882" y2="204.804" gradientUnits="userSpaceOnUse"><stop stop-color="#14A0E0" stop-opacity="0.9529"></stop><stop offset="0.105018" stop-color="#0098DD"></stop><stop offset="0.254729" stop-color="#52B9E8" stop-opacity="0.8004"></stop><stop offset="0.845304" stop-color="white" stop-opacity="0"></stop></linearGradient><linearGradient id="paint_illustration_41_linear" x1="43.129" y1="290.604" x2="98.5829" y2="290.604" gradientUnits="userSpaceOnUse"><stop stop-color="#00FFC4"></stop><stop offset="1" stop-color="#00B3FF"></stop></linearGradient><linearGradient id="paint_illustration_42_linear" x1="54.7018" y1="295.678" x2="66.2124" y2="331.058" gradientUnits="userSpaceOnUse"><stop stop-color="#12C2E9"></stop><stop offset="1" stop-color="#1168E0"></stop></linearGradient><linearGradient id="paint_illustration_43_linear" x1="87.0228" y1="295.678" x2="75.5122" y2="331.058" gradientUnits="userSpaceOnUse"><stop stop-color="#12C2E9"></stop><stop offset="1" stop-color="#1168E0"></stop></linearGradient><linearGradient id="paint_illustration_44_linear" x1="48.06" y1="288.146" x2="93.645" y2="288.146" gradientUnits="userSpaceOnUse"><stop stop-color="#00FFC4"></stop><stop offset="1" stop-color="#00B3FF"></stop></linearGradient><linearGradient id="paint_illustration_45_linear" x1="95.2122" y1="303.089" x2="48.4086" y2="303.906" gradientUnits="userSpaceOnUse"><stop stop-color="#2FB0F4"></stop><stop offset="1" stop-color="#1168E0"></stop></linearGradient><linearGradient id="paint_illustration_46_linear" x1="43.129" y1="290.639" x2="88.2181" y2="277.756" gradientUnits="userSpaceOnUse"><stop stop-color="#6CFAFB"></stop><stop offset="0.865762" stop-color="#00B3FF"></stop></linearGradient><linearGradient id="paint_illustration_47_linear" x1="53.2096" y1="290.604" x2="88.5032" y2="290.604" gradientUnits="userSpaceOnUse"><stop stop-color="#0098DD"></stop><stop offset="1" stop-color="#1168E0"></stop></linearGradient><linearGradient id="paint_illustration_48_linear" x1="43.129" y1="273.339" x2="98.5829" y2="273.339" gradientUnits="userSpaceOnUse"><stop stop-color="#00FFC4"></stop><stop offset="1" stop-color="#00B3FF"></stop></linearGradient><linearGradient id="paint_illustration_49_linear" x1="54.7018" y1="278.807" x2="67.9726" y2="316.487" gradientUnits="userSpaceOnUse"><stop stop-color="#12C2E9"></stop><stop offset="1" stop-color="#1168E0"></stop></linearGradient><linearGradient id="paint_illustration_50_linear" x1="87.0228" y1="278.807" x2="73.752" y2="316.487" gradientUnits="userSpaceOnUse"><stop stop-color="#12C2E9"></stop><stop offset="1" stop-color="#1168E0"></stop></linearGradient><linearGradient id="paint_illustration_51_linear" x1="48.0639" y1="270.88" x2="93.6489" y2="270.88" gradientUnits="userSpaceOnUse"><stop stop-color="#00FFC4"></stop><stop offset="1" stop-color="#00B3FF"></stop></linearGradient><linearGradient id="paint_illustration_52_linear" x1="103.104" y1="280.896" x2="64.2907" y2="290.284" gradientUnits="userSpaceOnUse"><stop stop-color="#43DDFF"></stop><stop offset="1" stop-color="#1168E0"></stop></linearGradient><linearGradient id="paint_illustration_53_linear" x1="43.129" y1="273.373" x2="88.2181" y2="260.491" gradientUnits="userSpaceOnUse"><stop stop-color="#6CFAFB"></stop><stop offset="0.865762" stop-color="#00B3FF"></stop></linearGradient><linearGradient id="paint_illustration_54_linear" x1="53.2096" y1="273.338" x2="88.5032" y2="273.338" gradientUnits="userSpaceOnUse"><stop stop-color="#0098DD"></stop><stop offset="1" stop-color="#1168E0"></stop></linearGradient><linearGradient id="paint_illustration_55_linear" x1="43.129" y1="256.054" x2="98.5829" y2="256.054" gradientUnits="userSpaceOnUse"><stop stop-color="#00FFC4"></stop><stop offset="1" stop-color="#00B3FF"></stop></linearGradient><linearGradient id="paint_illustration_56_linear" x1="54.7018" y1="261.521" x2="67.9726" y2="299.202" gradientUnits="userSpaceOnUse"><stop stop-color="#12C2E9"></stop><stop offset="1" stop-color="#1168E0"></stop></linearGradient><linearGradient id="paint_illustration_57_linear" x1="87.0228" y1="261.521" x2="73.752" y2="299.202" gradientUnits="userSpaceOnUse"><stop stop-color="#12C2E9"></stop><stop offset="1" stop-color="#1168E0"></stop></linearGradient><linearGradient id="paint_illustration_58_linear" x1="48.06" y1="253.599" x2="93.645" y2="253.599" gradientUnits="userSpaceOnUse"><stop stop-color="#00FFC4"></stop><stop offset="1" stop-color="#00B3FF"></stop></linearGradient><linearGradient id="paint_illustration_59_linear" x1="95.2122" y1="268.542" x2="48.4086" y2="269.359" gradientUnits="userSpaceOnUse"><stop stop-color="#2CA9F2"></stop><stop offset="1" stop-color="#1168E0"></stop></linearGradient><linearGradient id="paint_illustration_60_linear" x1="43.1616" y1="256.038" x2="98.6115" y2="256.038" gradientUnits="userSpaceOnUse"><stop offset="0.303867" stop-color="#00FFFF"></stop><stop offset="1" stop-color="#059FF7"></stop></linearGradient><linearGradient id="paint_illustration_61_linear" x1="53.2096" y1="256.053" x2="88.5032" y2="256.053" gradientUnits="userSpaceOnUse"><stop stop-color="#0098DD"></stop><stop offset="1" stop-color="#1168E0"></stop></linearGradient><linearGradient id="paint_illustration_62_linear" x1="43.1309" y1="256.088" x2="88.2201" y2="243.206" gradientUnits="userSpaceOnUse"><stop stop-color="#6CFAFB"></stop><stop offset="0.865762" stop-color="#00B3FF"></stop></linearGradient><linearGradient id="paint_illustration_63_linear" x1="52.8961" y1="257.219" x2="88.7401" y2="257.219" gradientUnits="userSpaceOnUse"><stop offset="0.303867" stop-color="#00FFFF"></stop><stop offset="1" stop-color="#059FF7"></stop></linearGradient><linearGradient id="paint_illustration_64_linear" x1="171.903" y1="105.445" x2="185.875" y2="105.445" gradientUnits="userSpaceOnUse"><stop stop-color="#78FFD6"></stop><stop offset="1" stop-color="#0098DD"></stop></linearGradient><linearGradient id="paint_illustration_65_linear" x1="177.043" y1="127.879" x2="237.627" y2="127.879" gradientUnits="userSpaceOnUse"><stop stop-color="#006DF0"></stop><stop offset="1" stop-color="#01FBFF"></stop></linearGradient><linearGradient id="paint_illustration_66_linear" x1="176.882" y1="106.297" x2="188.578" y2="106.297" gradientUnits="userSpaceOnUse"><stop stop-color="#78FFD6"></stop><stop offset="1" stop-color="#0098DD"></stop></linearGradient><linearGradient id="paint_illustration_67_linear" x1="228.96" y1="140.093" x2="246.804" y2="140.093" gradientUnits="userSpaceOnUse"><stop stop-color="#78FFD6"></stop><stop offset="1" stop-color="#0098DD"></stop></linearGradient><linearGradient id="paint_illustration_68_linear" x1="237.963" y1="134.05" x2="252.001" y2="134.05" gradientUnits="userSpaceOnUse"><stop stop-color="#059FF7"></stop><stop offset="1" stop-color="#00FFFF"></stop></linearGradient><linearGradient id="paint_illustration_69_linear" x1="179.581" y1="106.858" x2="190.956" y2="106.858" gradientUnits="userSpaceOnUse"><stop stop-color="#78FFD6"></stop><stop offset="1" stop-color="#0098DD"></stop></linearGradient><linearGradient id="paint_illustration_70_linear" x1="166.941" y1="128.466" x2="231.145" y2="115.259" gradientUnits="userSpaceOnUse"><stop stop-color="#6CFAFB"></stop><stop offset="0.865762" stop-color="#00B3FF"></stop></linearGradient><linearGradient id="paint_illustration_71_linear" x1="172.187" y1="101.302" x2="190.878" y2="101.302" gradientUnits="userSpaceOnUse"><stop stop-color="#006DF0"></stop><stop offset="1" stop-color="#01FBFF"></stop></linearGradient><linearGradient id="paint_illustration_72_linear" x1="232.656" y1="144.866" x2="249.382" y2="142.542" gradientUnits="userSpaceOnUse"><stop stop-color="#6CFAFB"></stop><stop offset="0.865762" stop-color="#00B3FF"></stop></linearGradient><linearGradient id="paint_illustration_73_linear" x1="230.961" y1="116.022" x2="249.522" y2="116.022" gradientUnits="userSpaceOnUse"><stop stop-color="#78FFD6"></stop><stop offset="1" stop-color="#0098DD"></stop></linearGradient><linearGradient id="paint_illustration_74_linear" x1="230.961" y1="116.022" x2="249.522" y2="116.022" gradientUnits="userSpaceOnUse"><stop stop-color="#78FFD6"></stop><stop offset="1" stop-color="#0098DD"></stop></linearGradient><linearGradient id="paint_illustration_75_linear" x1="206.346" y1="91.086" x2="245.012" y2="91.086" gradientUnits="userSpaceOnUse"><stop stop-color="#78FFD6"></stop><stop offset="1" stop-color="#0098DD"></stop></linearGradient><linearGradient id="paint_illustration_76_linear" x1="183.522" y1="68.593" x2="215.342" y2="68.593" gradientUnits="userSpaceOnUse"><stop stop-color="#78FFD6"></stop><stop offset="1" stop-color="#0098DD"></stop></linearGradient><linearGradient id="paint_illustration_77_linear" x1="236.019" y1="112.07" x2="250.048" y2="112.07" gradientUnits="userSpaceOnUse"><stop stop-color="#78FFD6"></stop><stop offset="1" stop-color="#0098DD"></stop></linearGradient><linearGradient id="paint_illustration_78_linear" x1="240.531" y1="118.11" x2="255.15" y2="118.11" gradientUnits="userSpaceOnUse"><stop stop-color="#78FFD6"></stop><stop offset="1" stop-color="#0098DD"></stop></linearGradient><linearGradient id="paint_illustration_79_linear" x1="240.592" y1="118.16" x2="255.069" y2="118.16" gradientUnits="userSpaceOnUse"><stop stop-color="#006DF0"></stop><stop offset="1" stop-color="#01FBFF"></stop></linearGradient><linearGradient id="paint_illustration_80_linear" x1="231.021" y1="112.098" x2="255.016" y2="112.098" gradientUnits="userSpaceOnUse"><stop stop-color="#006DF0"></stop><stop offset="1" stop-color="#01FBFF"></stop></linearGradient><linearGradient id="paint_illustration_81_linear" x1="180.015" y1="86.3754" x2="249.672" y2="86.3754" gradientUnits="userSpaceOnUse"><stop stop-color="#006DF0"></stop><stop offset="1" stop-color="#01FBFF"></stop></linearGradient><linearGradient id="paint_illustration_82_linear" x1="169.69" y1="93.5393" x2="234.295" y2="80.5255" gradientUnits="userSpaceOnUse"><stop stop-color="#6CFAFB"></stop><stop offset="0.865762" stop-color="#00B3FF"></stop></linearGradient><linearGradient id="paint_illustration_83_linear" x1="426.095" y1="290.447" x2="268.208" y2="380.568" gradientUnits="userSpaceOnUse"><stop stop-color="#006DF0"></stop><stop offset="1" stop-color="#01FBFF"></stop></linearGradient><linearGradient id="paint_illustration_84_linear" x1="278.498" y1="302.106" x2="378.334" y2="272.76" gradientUnits="userSpaceOnUse"><stop stop-color="#6CFAFB"></stop><stop offset="0.865762" stop-color="#00B3FF"></stop></linearGradient><linearGradient id="paint_illustration_85_linear" x1="342.888" y1="273.303" x2="342.888" y2="202.804" gradientUnits="userSpaceOnUse"><stop stop-color="#14A0E0" stop-opacity="0.9529"></stop><stop offset="0.105018" stop-color="#0098DD"></stop><stop offset="0.254729" stop-color="#52B9E8" stop-opacity="0.8004"></stop><stop offset="0.845304" stop-color="white" stop-opacity="0"></stop></linearGradient><linearGradient id="paint_illustration_86_linear" x1="315.129" y1="288.604" x2="370.583" y2="288.604" gradientUnits="userSpaceOnUse"><stop stop-color="#00FFC4"></stop><stop offset="1" stop-color="#00B3FF"></stop></linearGradient><linearGradient id="paint_illustration_87_linear" x1="326.702" y1="293.678" x2="338.212" y2="329.058" gradientUnits="userSpaceOnUse"><stop stop-color="#12C2E9"></stop><stop offset="1" stop-color="#1168E0"></stop></linearGradient><linearGradient id="paint_illustration_88_linear" x1="359.023" y1="293.678" x2="347.512" y2="329.058" gradientUnits="userSpaceOnUse"><stop stop-color="#12C2E9"></stop><stop offset="1" stop-color="#1168E0"></stop></linearGradient><linearGradient id="paint_illustration_89_linear" x1="320.06" y1="286.146" x2="365.645" y2="286.146" gradientUnits="userSpaceOnUse"><stop stop-color="#00FFC4"></stop><stop offset="1" stop-color="#00B3FF"></stop></linearGradient><linearGradient id="paint_illustration_90_linear" x1="367.212" y1="301.089" x2="320.409" y2="301.906" gradientUnits="userSpaceOnUse"><stop stop-color="#2FB0F4"></stop><stop offset="1" stop-color="#1168E0"></stop></linearGradient><linearGradient id="paint_illustration_91_linear" x1="315.129" y1="288.639" x2="360.218" y2="275.756" gradientUnits="userSpaceOnUse"><stop stop-color="#6CFAFB"></stop><stop offset="0.865762" stop-color="#00B3FF"></stop></linearGradient><linearGradient id="paint_illustration_92_linear" x1="325.21" y1="288.604" x2="360.503" y2="288.604" gradientUnits="userSpaceOnUse"><stop stop-color="#0098DD"></stop><stop offset="1" stop-color="#1168E0"></stop></linearGradient><linearGradient id="paint_illustration_93_linear" x1="315.129" y1="271.339" x2="370.583" y2="271.339" gradientUnits="userSpaceOnUse"><stop stop-color="#00FFC4"></stop><stop offset="1" stop-color="#00B3FF"></stop></linearGradient><linearGradient id="paint_illustration_94_linear" x1="326.702" y1="276.807" x2="339.973" y2="314.487" gradientUnits="userSpaceOnUse"><stop stop-color="#12C2E9"></stop><stop offset="1" stop-color="#1168E0"></stop></linearGradient><linearGradient id="paint_illustration_95_linear" x1="359.023" y1="276.807" x2="345.752" y2="314.487" gradientUnits="userSpaceOnUse"><stop stop-color="#12C2E9"></stop><stop offset="1" stop-color="#1168E0"></stop></linearGradient><linearGradient id="paint_illustration_96_linear" x1="320.064" y1="268.88" x2="365.649" y2="268.88" gradientUnits="userSpaceOnUse"><stop stop-color="#00FFC4"></stop><stop offset="1" stop-color="#00B3FF"></stop></linearGradient><linearGradient id="paint_illustration_97_linear" x1="375.104" y1="278.896" x2="336.291" y2="288.284" gradientUnits="userSpaceOnUse"><stop stop-color="#43DDFF"></stop><stop offset="1" stop-color="#1168E0"></stop></linearGradient><linearGradient id="paint_illustration_98_linear" x1="315.129" y1="271.373" x2="360.218" y2="258.491" gradientUnits="userSpaceOnUse"><stop stop-color="#6CFAFB"></stop><stop offset="0.865762" stop-color="#00B3FF"></stop></linearGradient><linearGradient id="paint_illustration_99_linear" x1="325.21" y1="271.338" x2="360.503" y2="271.338" gradientUnits="userSpaceOnUse"><stop stop-color="#0098DD"></stop><stop offset="1" stop-color="#1168E0"></stop></linearGradient><linearGradient id="paint_illustration_100_linear" x1="315.129" y1="254.054" x2="370.583" y2="254.054" gradientUnits="userSpaceOnUse"><stop stop-color="#00FFC4"></stop><stop offset="1" stop-color="#00B3FF"></stop></linearGradient><linearGradient id="paint_illustration_101_linear" x1="326.702" y1="259.521" x2="339.973" y2="297.202" gradientUnits="userSpaceOnUse"><stop stop-color="#12C2E9"></stop><stop offset="1" stop-color="#1168E0"></stop></linearGradient><linearGradient id="paint_illustration_102_linear" x1="359.023" y1="259.521" x2="345.752" y2="297.202" gradientUnits="userSpaceOnUse"><stop stop-color="#12C2E9"></stop><stop offset="1" stop-color="#1168E0"></stop></linearGradient><linearGradient id="paint_illustration_103_linear" x1="320.06" y1="251.599" x2="365.645" y2="251.599" gradientUnits="userSpaceOnUse"><stop stop-color="#00FFC4"></stop><stop offset="1" stop-color="#00B3FF"></stop></linearGradient><linearGradient id="paint_illustration_104_linear" x1="367.212" y1="266.542" x2="320.409" y2="267.359" gradientUnits="userSpaceOnUse"><stop stop-color="#2CA9F2"></stop><stop offset="1" stop-color="#1168E0"></stop></linearGradient><linearGradient id="paint_illustration_105_linear" x1="315.162" y1="254.038" x2="370.611" y2="254.038" gradientUnits="userSpaceOnUse"><stop offset="0.303867" stop-color="#00FFFF"></stop><stop offset="1" stop-color="#059FF7"></stop></linearGradient><linearGradient id="paint_illustration_106_linear" x1="325.21" y1="254.053" x2="360.503" y2="254.053" gradientUnits="userSpaceOnUse"><stop stop-color="#0098DD"></stop><stop offset="1" stop-color="#1168E0"></stop></linearGradient><linearGradient id="paint_illustration_107_linear" x1="315.131" y1="254.088" x2="360.22" y2="241.206" gradientUnits="userSpaceOnUse"><stop stop-color="#6CFAFB"></stop><stop offset="0.865762" stop-color="#00B3FF"></stop></linearGradient><linearGradient id="paint_illustration_108_linear" x1="324.896" y1="255.219" x2="360.74" y2="255.219" gradientUnits="userSpaceOnUse"><stop offset="0.303867" stop-color="#00FFFF"></stop><stop offset="1" stop-color="#059FF7"></stop></linearGradient></defs></svg>